<svg xmlns="http://www.w3.org/2000/svg" viewBox="0 0 1920.93 289.53"><g data-name="Layer 2"><path d="M429.82 229.43a46.65 46.65 0 0 1-20.2-21H409l-1.31 26.11h-20.83V43h24.07v78.48h.58a56.95 56.95 0 0 1 47.71-24.94 62.16 62.16 0 0 1 55.07 32.82q8.82 15.9 8.82 37.35 0 21.88-8.75 37.71a60.25 60.25 0 0 1-23.49 24.07 65.25 65.25 0 0 1-32.38 8.24 59.44 59.44 0 0 1-28.67-7.3Zm47.63-18.82a38.59 38.59 0 0 0 15.25-16.78q5.46-11.09 5.47-27.13t-5.47-27.06a38 38 0 0 0-15.25-16.78q-9.76-5.62-22.76-5.62a41.86 41.86 0 0 0-21.73 6 42.88 42.88 0 0 0-16 17.29q-6 11.31-6 26.62t6.2 26.48a43.13 43.13 0 0 0 16.19 16.92 42 42 0 0 0 21.37 5.77q12.96-.02 22.73-5.71Zm92.63 20.28a41.89 41.89 0 0 1-17.58-18q-6.5-12.18-6.5-30.71V99.3h24.22v82q0 13 2.92 20.42a19.44 19.44 0 0 0 9.7 10.79q6.78 3.36 18.6 3.36a37.46 37.46 0 0 0 18.38-4.67 34.13 34.13 0 0 0 13.64-14.44q5.17-9.78 5.18-24.07V99.3h24.22v135.23H642l-.88-22.76h-.58q-6.54 12.71-17.44 18.82t-27.79 6.13a53.34 53.34 0 0 1-25.23-5.83ZM690.42 66.33q-4.68-4.38-4.67-12.4t4.59-12.4Q694.95 37 703.11 37q7.73 0 12.4 4.66t4.67 12.26q0 7.88-4.6 12.33t-12.47 4.45q-8.02.01-12.69-4.37Zm24.65 168.2H691V99.3h24.07Zm52.07 0h-24.07V42.26h24.07Zm54.77-5.98a59.1 59.1 0 0 1-23.27-23.85Q790 189 790 167.72q0-21.89 8.68-37.93a61.1 61.1 0 0 1 23.34-24.51 64.1 64.1 0 0 1 32.61-8.46 57.19 57.19 0 0 1 27.5 6.71 54 54 0 0 1 19.76 17.65h.3V43h24.36v191.53h-20.83l-1.9-27.42h-.29a45.72 45.72 0 0 1-10.94 15.1 53.63 53.63 0 0 1-17.22 10.65 57.44 57.44 0 0 1-21 3.86 65.49 65.49 0 0 1-32.46-8.17Zm57.62-18.23A43.36 43.36 0 0 0 896 192.66q6.19-11.67 6.2-27.86 0-14.3-6.28-25.16A43.54 43.54 0 0 0 879.38 123a44.75 44.75 0 0 0-22.24-5.76 42.38 42.38 0 0 0-22.1 5.69q-9.56 5.69-14.88 17t-5.33 27.79q0 15 5.33 26A38.76 38.76 0 0 0 835 210.53a41.51 41.51 0 0 0 22 5.77 44.12 44.12 0 0 0 22.53-5.98Zm74.61-143.99q-4.67-4.38-4.67-12.4t4.59-12.4Q958.67 37 966.83 37q7.73 0 12.4 4.66t4.67 12.26q0 7.88-4.6 12.33t-12.47 4.45q-8.02.01-12.69-4.37Zm24.65 168.2h-24.07V99.3h24.07Zm28 0V99.3h20.86l.88 23.34h.43a53.29 53.29 0 0 1 18.09-19.18 46.63 46.63 0 0 1 25.24-6.93q15 0 26.7 6.2a43.89 43.89 0 0 1 18.23 18.27q6.57 12 6.57 28.81v84.76h-24.22v-79.25q0-18.67-8.46-28.23t-23.63-9.56a34.09 34.09 0 0 0-17.58 5q-8.39 5-13.71 15.1t-5.33 24.73v72.21Zm176.58 49.24a77 77 0 0 1-25.6-16.56l14.29-17.21q9.93 9.76 19.62 14a54 54 0 0 0 21.81 4.23q20.58 0 31.66-11t11.09-31.59v-17.22h-.44q-5.55 10.35-18 16.78a57.62 57.62 0 0 1-26.77 6.42q-18.52 0-33.11-8a56.84 56.84 0 0 1-22.9-23q-8.32-15-8.32-35.74t8.61-36.26a61.38 61.38 0 0 1 22.83-23.85 60.07 60.07 0 0 1 30.86-8.24 56.77 56.77 0 0 1 28.23 7.07 59.41 59.41 0 0 1 20.5 18.75h.29l1.17-23h20.42v122.2q0 21-7.73 36.32a54.11 54.11 0 0 1-22.4 23.49q-14.65 8.17-35.08 8.17a83.28 83.28 0 0 1-31.03-5.76Zm51.06-78a37.33 37.33 0 0 0 15-15.75q5.47-10.44 5.48-25 0-14.74-5.84-25.46a40.52 40.52 0 0 0-15.76-16.34 43.94 43.94 0 0 0-22-5.62q-12.25 0-21.3 5.84a37.31 37.31 0 0 0-13.86 16.56q-4.82 10.73-4.82 25 0 22.17 11 34.13t30.27 12a44 44 0 0 0 21.83-5.41Zm66.64 10.23 16.93-25.1a75.82 75.82 0 0 0 21.15 13.72 54.21 54.21 0 0 0 21 4.66q9.48 0 14.51-3.13t5-8.54a10.91 10.91 0 0 0-3.72-8.46q-3.72-3.34-12.61-5.69l-23.2-6.12q-18.24-4.82-27.72-14.81t-9.48-26a35.53 35.53 0 0 1 6.27-20.35q6.27-9.27 18.16-14.74t27.94-5.47a84.43 84.43 0 0 1 29.91 5.11 78.37 78.37 0 0 1 25.24 15.75l-19.7 22a58.59 58.59 0 0 0-17-10.5 48.49 48.49 0 0 0-18.17-3.79q-9.63 0-14.66 3.57t-5 8.83a9.09 9.09 0 0 0 3.14 7.15q3.14 2.76 11.16 5l23.63 6.56q19.7 5.55 29.61 15.24t9.92 25a38.38 38.38 0 0 1-6 21.16q-6 9.33-17.72 14.66t-28.48 5.29q-38.09 0-60.11-21Zm204.7 19.12h-38.65L1422.18 99.3h38.08l26.7 98.47h.58l31.8-98.47h32.39l32.68 98.18h.43l27-98.18h36.62l-44.06 135.82h-38.07l-29.91-91h-.58ZM1788 177.78h-100.06q2.77 14.88 13 22.54t25.82 7.66a52.18 52.18 0 0 0 19.47-3.57 43.41 43.41 0 0 0 15.25-10l20.86 20.87a70.13 70.13 0 0 1-24.73 16 87.7 87.7 0 0 1-31.73 5.47q-21.3 0-38-8.75a64 64 0 0 1-26-24.66q-9.33-15.9-9.34-36.61 0-20.43 8.76-36.47a63 63 0 0 1 24.43-25q15.69-9 35.67-9 20.57 0 35.82 8.38a57.45 57.45 0 0 1 23.41 23.64q8.18 15.24 8.17 35.37-.05 5.82-.8 14.13Zm-87.09-46.68q-9 7.16-12.26 20.72h65.94q-2-13.57-10.43-20.72t-21.06-7.1q-13.1 0-22.17 7.1Zm150.53 103.43h-35.89V43h35.89Zm69.49 0h-35.88V43h35.88ZM0 0v162.74l12.36.67c.12 0 13.21.73 27.57.73 8.54 0 15.85-.26 21.73-.75 38.69-3.32 64.24-21.32 89-38.75 22.79-16.06 44.32-31.23 75.82-34.1 17.25-1.56 44-.25 49.25 0l13.82.8V0Zm263.4 64c-11.37-.34-27.2-.49-39.31.6-38.5 3.51-63.94 21.44-88.55 38.79-22.87 16.11-44.47 31.34-76.12 34.05-9.88.85-23.44.72-33.28.45V26.05H263.4Zm-35.52 62.14c-38.7 3.32-64.24 21.32-89 38.74C116.11 181 94.58 196.13 63.07 199c-18.63 1.67-49 0-49.25 0L0 198.16v91.37h289.53V126.79l-12.35-.67c-1.18-.12-29.99-1.63-49.3.02ZM26.14 263.48v-37.94c11.33.35 27.13.51 39.31-.61 38.49-3.5 63.94-21.43 88.55-38.77 22.87-16.12 44.47-31.35 76.12-34.06 7.92-.69 19.11-.83 33.28-.45v111.83Z" style="fill:#fff" data-name="Layer 1"/></g></svg>