<svg id="Layer_1" data-name="Layer 1" xmlns="http://www.w3.org/2000/svg" viewBox="625 625 1250 1250"><defs><style>.cls-1{fill:#0c4883;}</style></defs><title>0</title><path class="cls-1" d="M625,625v702.61l53.34,2.9c.55,0,57,3.12,119,3.12,36.88,0,68.44-1.09,93.79-3.22,167-14.33,277.35-92,384.15-167.3,98.41-69.35,191.37-134.84,327.36-147.22,74.47-6.74,189.8-1.09,212.61.14l59.69,3.44V625ZM1762.17,901.25c-49.07-1.45-117.42-2.11-169.72,2.63-166.19,15.13-276,92.55-382.3,167.43-98.73,69.59-192,135.31-328.63,147-42.64,3.69-101.19,3.1-143.68,2V737.48H1762.17Z"/><path class="cls-1" d="M1608.83,1169.6c-167.06,14.32-277.36,92.05-384.1,167.25-98.43,69.37-191.39,134.89-327.42,147.28-80.46,7.23-211.39-.08-212.63-.16L625,1480.54V1875H1875V1172.39l-53.34-2.9C1816.41,1169.18,1692.19,1162.47,1608.83,1169.6Zm-871,592.91V1598.74c48.94,1.5,117.15,2.2,169.71-2.64,166.21-15.11,276.07-92.53,382.32-167.4,98.73-69.6,192-135.32,328.62-147,34.2-3,82.52-3.61,143.67-2v482.8Z"/></svg>